<svg xmlns="http://www.w3.org/2000/svg" width="56" height="56">
    <path fill-rule="evenodd" fill="#FEE500" d="M27.999 0c15.464 0 28 12.535 28 27.999 0 15.464-12.536 28-28 28S0 43.463 0 27.999 12.535 0 27.999 0z"/>
    <path fill-rule="evenodd" fill-opacity=".902" d="M27.998 16.15c-7.185 0-13.008 4.491-13.008 10.199 0 3.549 2.253 6.931 5.683 8.54l-1.444 5.421c-.127.48.405.862 1.211.584l5.93-4.294c.534.053 1.076.084 1.628.084 7.186 0 13.702-4.114 13.702-10.335 0-5.708-6.516-10.199-13.702-10.199"/>
</svg>
